<svg xmlns="http://www.w3.org/2000/svg" width="1000" height="360" viewBox="0 0 1000 360">
  <rect width="1000" height="360" rx="28" fill="#f8fbff"/>
  <defs>
    <marker id="arrow" markerWidth="12" markerHeight="12" refX="10" refY="6" orient="auto">
      <path d="M0,0 L12,6 L0,12 z" fill="#0050a0"/>
    </marker>
  </defs>
  <g font-family="Arial" font-weight="800" text-anchor="middle">
    <g transform="translate(110 120)">
      <rect x="-70" y="-45" width="140" height="90" rx="20" fill="#e6f0ff" stroke="#0050a0" stroke-width="3"/>
      <text y="-5" font-size="22" fill="#052b55">HTML</text>
      <text y="25" font-size="15" fill="#667085">coleta</text>
    </g>
    <g transform="translate(305 120)">
      <rect x="-70" y="-45" width="140" height="90" rx="20" fill="#fff3d8" stroke="#f9b233" stroke-width="3"/>
      <text y="-5" font-size="22" fill="#052b55">JS</text>
      <text y="25" font-size="15" fill="#667085">envia</text>
    </g>
    <g transform="translate(500 120)">
      <rect x="-70" y="-45" width="140" height="90" rx="20" fill="#e6f0ff" stroke="#0066cc" stroke-width="3"/>
      <text y="-5" font-size="22" fill="#052b55">fetch</text>
      <text y="25" font-size="15" fill="#667085">POST</text>
    </g>
    <g transform="translate(695 120)">
      <rect x="-70" y="-45" width="140" height="90" rx="20" fill="#e9f8ef" stroke="#1f8f4d" stroke-width="3"/>
      <text y="-5" font-size="22" fill="#052b55">PHP</text>
      <text y="25" font-size="15" fill="#667085">processa</text>
    </g>
    <g transform="translate(890 120)">
      <rect x="-70" y="-45" width="140" height="90" rx="20" fill="#fff0ee" stroke="#c0392b" stroke-width="3"/>
      <text y="-5" font-size="22" fill="#052b55">JSON</text>
      <text y="25" font-size="15" fill="#667085">armazena</text>
    </g>
  </g>
  <path d="M185 120h45" stroke="#0050a0" stroke-width="5" marker-end="url(#arrow)" fill="none"/>
  <path d="M380 120h45" stroke="#0050a0" stroke-width="5" marker-end="url(#arrow)" fill="none"/>
  <path d="M575 120h45" stroke="#0050a0" stroke-width="5" marker-end="url(#arrow)" fill="none"/>
  <path d="M770 120h45" stroke="#0050a0" stroke-width="5" marker-end="url(#arrow)" fill="none"/>
  <text x="500" y="245" font-family="Arial" font-size="28" font-weight="800" text-anchor="middle" fill="#052b55">O dado não desaparece: ele percorre uma arquitetura</text>
  <text x="500" y="288" font-family="Arial" font-size="20" text-anchor="middle" fill="#667085">Navegador → Requisição HTTP → Servidor → Arquivo de dados → Interface</text>
</svg>