<svg xmlns="http://www.w3.org/2000/svg" width="900" height="620" viewBox="0 0 900 620">
  <defs>
    <linearGradient id="bg" x1="0" y1="0" x2="1" y2="1">
      <stop offset="0" stop-color="#e6f0ff"/>
      <stop offset="1" stop-color="#ffffff"/>
    </linearGradient>
    <filter id="s" x="-20%" y="-20%" width="140%" height="140%">
      <feDropShadow dx="0" dy="18" stdDeviation="18" flood-color="#052b55" flood-opacity=".18"/>
    </filter>
  </defs>
  <rect width="900" height="620" rx="38" fill="url(#bg)"/>
  <circle cx="735" cy="105" r="72" fill="#f9b233" opacity=".25"/>
  <circle cx="135" cy="500" r="90" fill="#0066cc" opacity=".12"/>
  <g filter="url(#s)">
    <rect x="210" y="110" width="480" height="330" rx="34" fill="#ffffff"/>
    <rect x="250" y="158" width="400" height="34" rx="17" fill="#e6f0ff"/>
    <rect x="250" y="220" width="185" height="128" rx="22" fill="#fff3d8"/>
    <rect x="465" y="220" width="185" height="128" rx="22" fill="#e9f8ef"/>
    <rect x="250" y="380" width="400" height="28" rx="14" fill="#dbe6f3"/>
  </g>
  <g transform="translate(275 240)">
    <rect x="0" y="25" width="84" height="62" rx="13" fill="#0050a0"/>
    <path d="M18 25V10h48v15" fill="none" stroke="#0050a0" stroke-width="12" stroke-linecap="round"/>
    <circle cx="42" cy="56" r="10" fill="#f9b233"/>
  </g>
  <g transform="translate(505 240)">
    <rect x="0" y="22" width="88" height="66" rx="16" fill="#1f8f4d"/>
    <path d="M18 22l26-18 26 18" fill="none" stroke="#1f8f4d" stroke-width="12" stroke-linecap="round"/>
    <path d="M27 52h35" stroke="#fff" stroke-width="10" stroke-linecap="round"/>
  </g>
  <g transform="translate(610 390)">
    <circle cx="44" cy="44" r="44" fill="#0050a0"/>
    <path d="M35 35h18v18H35zM53 53h18v18H53z" fill="#ffffff"/>
  </g>
  <text x="450" y="505" text-anchor="middle" font-family="Arial" font-size="34" font-weight="800" fill="#052b55">Perdi &amp; Achei</text>
  <text x="450" y="548" text-anchor="middle" font-family="Arial" font-size="22" fill="#667085">Central inteligente de registros acadêmicos</text>
</svg>